# xmcd
# 
# Track frame offsets:
#     150
#     16704
#     41053
#     60575
#     80053
#     93828
#     116588
#     134373
#     154095
#     176031
#     193215
#     207964
#     225708
#     237890
#     256067
#     269766
#     289436
# 
# Disc length: 4157
# 
# Revision: 0
# Processed by: cddbd v1.5.2PL0 Copyright (c) Steve Scherf et al.
# Submitted via: fre:ac v1.0.27
# 
DISCID=f4103b11
DTITLE=SDM - BLIZNY CZASU
DYEAR=2018
DGENRE=Country
TTITLE0=AKT STRZELISTY
TTITLE1=BAL W CISNEJ
TTITLE2=CZKAWKA
TTITLE3=KOREKTOR RZECZYWISTOSCI
TTITLE4=CYWILIZACJA
TTITLE5=NA PRZEDNOWKU
TTITLE6=BLOGOSLAWIENSTWO PLACZU
TTITLE7=STOKOWKA
TTITLE8=BLIZNY CZASU
TTITLE9=W SLUZBIE UKLADU
TTITLE10=BEZ NADZIEI NA CUD
TTITLE11=SZANTA Z KANAPY
TTITLE12=PIONOWY LOT
TTITLE13=JEZIORO LUBIE
TTITLE14=SWIETO SPRZECIWU
TTITLE15=ISTOTA PRZEZNACZENIA
TTITLE16=FILM MOJEGO SNU
EXTD=
EXTT0=
EXTT1=
EXTT2=
EXTT3=
EXTT4=
EXTT5=
EXTT6=
EXTT7=
EXTT8=
EXTT9=
EXTT10=
EXTT11=
EXTT12=
EXTT13=
EXTT14=
EXTT15=
EXTT16=
PLAYORDER=
